<svg version="1.1" xmlns="http://www.w3.org/2000/svg" viewBox="0 0 1326.9749693966369 1048" width="1326.9749693966369" height="1048" filter="invert(93%) hue-rotate(180deg)">
  <!-- svg-source:excalidraw -->
  
  <defs>
    <style class="style-fonts">
      @font-face {
        font-family: "Virgil";
        src: url("https://excalidraw.com/Virgil.woff2");
      }
      @font-face {
        font-family: "Cascadia";
        src: url("https://excalidraw.com/Cascadia.woff2");
      }
    </style>
  </defs>
  <g stroke-linecap="round"><g transform="translate(349.2910028030698 97.54386675466839) rotate(0 -146.29623364166736 236.54303721599442)"><path d="M-0.28 0.26 C-42.3 3.65, -207.12 -57.31, -251.69 19.28 C-296.26 95.86, -307.9 386.25, -267.68 459.78 C-227.47 533.31, -53.52 460.43, -10.38 460.46" stroke="#495057" stroke-width="2.5" fill="none" stroke-dasharray="8 10"></path></g><g transform="translate(349.2910028030698 97.54386675466839) rotate(0 -146.29623364166736 236.54303721599442)"><path d="M-35.5 476 C-28.39 470.43, -20.49 464.96, -11.16 462.37" stroke="#495057" stroke-width="2.5" fill="none"></path></g><g transform="translate(349.2910028030698 97.54386675466839) rotate(0 -146.29623364166736 236.54303721599442)"><path d="M-39.62 455.9 C-31.3 457.11, -22.01 458.42, -11.16 462.37" stroke="#495057" stroke-width="2.5" fill="none"></path></g></g><mask></mask><g stroke-linecap="round" transform="translate(176.97496939663677 38) rotate(0 270 500)"><path d="M32 0 M32 0 C188.23 0.68, 343.18 0.66, 508 0 M32 0 C184.22 0.98, 336.06 1, 508 0 M508 0 C528.11 0.68, 538.32 10.73, 540 32 M508 0 C528.17 0.84, 539.34 9.08, 540 32 M540 32 C541.28 329.15, 540.88 624.78, 540 968 M540 32 C538.19 335.13, 537.91 638.61, 540 968 M540 968 C538.26 989.04, 530.39 1000.09, 508 1000 M540 968 C540.66 988.31, 529.31 1002.15, 508 1000 M508 1000 C363.05 998.01, 216.82 997.58, 32 1000 M508 1000 C387.33 999.77, 267.09 999.64, 32 1000 M32 1000 C10.95 1001.53, 0.23 987.6, 0 968 M32 1000 C12.38 998.33, -0.43 987.91, 0 968 M0 968 C1.14 710.54, 1.09 454.13, 0 32 M0 968 C1.31 640.58, 1.75 313.76, 0 32 M0 32 C0.17 12.02, 9.97 1.81, 32 0 M0 32 C-0.02 12.55, 8.42 -1.52, 32 0" stroke="#495057" stroke-width="1" fill="none"></path></g><g stroke-linecap="round" transform="translate(836.9749693966368 238) rotate(0 240 260)"><path d="M32 0 M32 0 C194.76 1.89, 359.01 0.94, 448 0 M32 0 C124.8 0.18, 218.17 0.51, 448 0 M448 0 C469.92 0.29, 481.53 10.9, 480 32 M448 0 C467.34 1.71, 478.33 10.24, 480 32 M480 32 C478.56 139.9, 479.21 248.38, 480 488 M480 32 C481.21 204.49, 480.89 377.85, 480 488 M480 488 C481.47 509.51, 470.68 519.3, 448 520 M480 488 C482.08 509.31, 471.22 517.75, 448 520 M448 520 C351.28 521.87, 254.35 520.14, 32 520 M448 520 C307.89 518.98, 168.41 519.37, 32 520 M32 520 C11.71 519.43, 0.19 510.18, 0 488 M32 520 C11.68 518.04, -1.04 509.04, 0 488 M0 488 C-1.81 345.72, -1.36 205.61, 0 32 M0 488 C-1.16 354.11, -1.2 220.13, 0 32 M0 32 C-0.33 10.1, 11.97 0.14, 32 0 M0 32 C1.16 10.96, 8.45 -0.29, 32 0" stroke="#495057" stroke-width="1" fill="none"></path></g><g transform="translate(336.97496939663677 10) rotate(0 93.6899185180664 12)"><text x="0" y="0" font-family="Virgil, Segoe UI Emoji" font-size="20px" fill="#000000" text-anchor="start" style="white-space: pre;" direction="ltr" dominant-baseline="text-before-edge">createFastcontext</text></g><g transform="translate(1055.9749693966369 198) rotate(0 16.41998291015625 12)"><text x="0" y="0" font-family="Virgil, Segoe UI Emoji" font-size="20px" fill="#000000" text-anchor="start" style="white-space: pre;" direction="ltr" dominant-baseline="text-before-edge">App</text></g><g stroke-linecap="round" transform="translate(236.97496939663677 118) rotate(0 200 170)"><path d="M32 0 M32 0 C124.02 0.82, 213.93 1.81, 368 0 M368 0 C390.54 -0.45, 399.21 11.31, 400 32 M400 32 C398.96 132.88, 396.76 237.52, 400 308 M400 308 C399.19 329.48, 390.01 338.52, 368 340 M368 340 C243.03 341.08, 116.54 342.08, 32 340 M32 340 C11.59 341.51, 0.36 329.45, 0 308 M0 308 C-1.03 224.41, -2.15 140.33, 0 32 M0 32 C1.62 12.12, 10.55 -1.59, 32 0" stroke="#495057" stroke-width="1.5" fill="none" stroke-dasharray="8 9"></path></g><g transform="translate(376.97496939663677 91) rotate(0 70.4099349975586 12)"><text x="0" y="0" font-family="Virgil, Segoe UI Emoji" font-size="20px" fill="#343a40" text-anchor="start" style="white-space: pre;" direction="ltr" dominant-baseline="text-before-edge">useStoreData</text></g><g stroke-linecap="round" transform="translate(396.97496939663677 158) rotate(0 110 20)"><path d="M2.66 2.31 C2.66 2.31, 2.66 2.31, 2.66 2.31 M2.66 2.31 C2.66 2.31, 2.66 2.31, 2.66 2.31 M0.43 10.98 C3.35 5.77, 7.9 3.17, 10.27 -0.34 M0.43 10.98 C2.42 8.19, 4.01 6.41, 10.27 -0.34 M0.83 16.62 C5.9 11.4, 10.08 6.79, 13.29 2.28 M0.83 16.62 C3.62 14.49, 5.13 11.03, 13.29 2.28 M1.22 22.26 C4.99 19.91, 9.07 12.69, 18.28 2.64 M1.22 22.26 C7.24 15.8, 12.38 8.4, 18.28 2.64 M0.96 28.66 C6.24 23.51, 13.24 13.1, 23.27 3 M0.96 28.66 C9.75 18.79, 18.33 9.14, 23.27 3 M0.7 35.06 C10.77 24.85, 21.67 9.15, 28.91 2.6 M0.7 35.06 C10.82 25.15, 20.08 13.97, 28.91 2.6 M3.72 37.68 C8.92 29.45, 19.33 19.75, 33.9 2.97 M3.72 37.68 C10.04 30.29, 16.11 22.92, 33.9 2.97 M6.74 40.31 C13.73 31.78, 23.1 22.13, 39.54 2.57 M6.74 40.31 C16.1 29.2, 27.57 17.27, 39.54 2.57 M11.72 40.67 C23.55 27.78, 32.51 13.73, 44.53 2.93 M11.72 40.67 C23.9 26.28, 34.03 13.35, 44.53 2.93 M17.37 40.27 C28.29 26.17, 41.99 11.92, 50.17 2.54 M17.37 40.27 C28.51 27.32, 40.04 15.74, 50.17 2.54 M22.35 40.63 C30.96 29.31, 42.77 17.35, 55.16 2.9 M22.35 40.63 C31.77 29.15, 42.01 17.74, 55.16 2.9 M28 40.24 C36.16 33.69, 40.36 21.76, 60.8 2.5 M28 40.24 C39.55 27.1, 52.23 11.9, 60.8 2.5 M32.98 40.6 C43.92 30.05, 51.58 16.56, 65.79 2.86 M32.98 40.6 C43.65 27.98, 55.89 13.92, 65.79 2.86 M38.63 40.2 C51.46 26.65, 65.68 11.19, 71.43 2.47 M38.63 40.2 C50.02 27.17, 61.19 14.78, 71.43 2.47 M43.61 40.56 C51.96 29.79, 64.7 18.56, 76.42 2.83 M43.61 40.56 C52.2 30.89, 61.84 19.97, 76.42 2.83 M49.26 40.17 C54.42 30.84, 63.48 23.59, 81.4 3.19 M49.26 40.17 C57.97 30.69, 66.32 20.31, 81.4 3.19 M54.24 40.53 C61.64 29.52, 71.62 20.87, 87.05 2.79 M54.24 40.53 C61.76 29.72, 70.78 20.57, 87.05 2.79 M59.89 40.13 C68.95 29.42, 76.7 19.44, 92.03 3.15 M59.89 40.13 C69.69 27.98, 80.91 15.18, 92.03 3.15 M64.87 40.49 C76.11 28.11, 85.15 20.12, 97.68 2.76 M64.87 40.49 C74.43 29.27, 84.71 18.8, 97.68 2.76 M69.86 40.85 C83.16 25.24, 93.59 10.1, 102.66 3.12 M69.86 40.85 C78.63 32.62, 84.76 22.37, 102.66 3.12 M75.5 40.46 C86.52 25.62, 100.83 15.28, 108.31 2.72 M75.5 40.46 C82.79 32.72, 89.51 25.65, 108.31 2.72 M80.49 40.82 C92.97 24.63, 107.66 12.52, 113.29 3.08 M80.49 40.82 C93.01 27.03, 104.71 11.9, 113.29 3.08 M86.13 40.42 C97.55 27.55, 107.85 15.48, 118.94 2.69 M86.13 40.42 C94.87 30.27, 103.51 19.95, 118.94 2.69 M91.12 40.78 C100.93 27.26, 109.62 17.63, 123.92 3.05 M91.12 40.78 C101.2 28.5, 112.86 15.78, 123.92 3.05 M96.76 40.39 C108.22 25.04, 119.05 13.11, 129.57 2.65 M96.76 40.39 C107.62 27.32, 120.82 12.78, 129.57 2.65 M101.75 40.75 C110.99 33.34, 117.44 22.56, 134.55 3.01 M101.75 40.75 C112.13 27.51, 124.54 14.99, 134.55 3.01 M107.39 40.36 C118.08 28.21, 127.77 16.52, 139.54 3.37 M107.39 40.36 C115.37 31.82, 122.09 25.39, 139.54 3.37 M112.38 40.72 C120.53 30.43, 129.89 20.72, 145.18 2.98 M112.38 40.72 C120.04 31.59, 127.89 20.33, 145.18 2.98 M118.02 40.32 C127.43 29.52, 137.95 17.3, 150.17 3.34 M118.02 40.32 C129.56 27.24, 141.63 13.94, 150.17 3.34 M123.01 40.68 C133.28 30.69, 143.58 19.07, 155.81 2.95 M123.01 40.68 C135.5 26.78, 147.71 12.24, 155.81 2.95 M128 41.04 C135.18 32.02, 147.86 18.87, 160.8 3.31 M128 41.04 C141.32 26.89, 152.61 14.01, 160.8 3.31 M133.64 40.65 C142.39 29.63, 151.97 20.87, 166.44 2.91 M133.64 40.65 C146.04 26.4, 158.73 10.72, 166.44 2.91 M138.63 41.01 C146.7 33.52, 156.64 20.97, 171.43 3.27 M138.63 41.01 C147.11 31.18, 155.75 22.07, 171.43 3.27 M144.27 40.61 C158.03 25.63, 170.09 10.1, 177.07 2.88 M144.27 40.61 C153.21 31.86, 161.48 20.53, 177.07 2.88 M149.26 40.97 C160.54 24.37, 174.42 12.86, 182.06 3.24 M149.26 40.97 C157.07 31.77, 166.72 21.32, 182.06 3.24 M154.9 40.58 C168.37 25.48, 181.28 11.18, 187.7 2.84 M154.9 40.58 C165.37 27.42, 177.02 15.9, 187.7 2.84 M159.89 40.94 C171.83 26.94, 182.79 15.87, 192.69 3.2 M159.89 40.94 C171.75 26.81, 184.75 11.22, 192.69 3.2 M165.53 40.54 C174.62 30.83, 182.48 17.3, 198.33 2.81 M165.53 40.54 C173.57 32.51, 180.09 24.54, 198.33 2.81 M170.52 40.9 C181.95 28.83, 191.93 19.06, 203.32 3.17 M170.52 40.9 C182.93 25.73, 197.07 11.54, 203.32 3.17 M176.16 40.51 C186.48 31.38, 196.95 19.24, 208.31 3.53 M176.16 40.51 C186.54 28.55, 197.76 15.98, 208.31 3.53 M181.15 40.87 C193.23 25.16, 205.65 11.22, 215.26 1.62 M181.15 40.87 C192.51 27.07, 204.54 13.45, 215.26 1.62 M186.14 41.23 C195.93 29.02, 203.65 19.87, 218.28 4.25 M186.14 41.23 C198.22 27.48, 209.94 13.85, 218.28 4.25 M191.78 40.83 C197.14 34.98, 203.92 28.31, 221.3 6.87 M191.78 40.83 C198.54 34.01, 205.05 27.18, 221.3 6.87 M196.77 41.19 C202.59 33.99, 212.2 23.2, 221.04 13.27 M196.77 41.19 C204.95 32.3, 213.37 21.26, 221.04 13.27 M202.41 40.8 C209.69 32.06, 212.93 27.09, 220.78 19.67 M202.41 40.8 C208.64 33.83, 215.65 27.19, 220.78 19.67 M207.4 41.16 C212.19 35.87, 214.54 32.12, 221.17 25.31 M207.4 41.16 C210.88 36.71, 214.14 33.84, 221.17 25.31 M212.38 41.52 C213.41 38.69, 217.22 36.05, 220.91 31.71 M212.38 41.52 C215.16 38.43, 218.79 34.75, 220.91 31.71" stroke="#868e96" stroke-width="0.5" fill="none"></path><path d="M10 0 M10 0 C65.23 -0.96, 118.75 0.66, 210 0 M10 0 C70.57 0.67, 131.31 1, 210 0 M210 0 C218.01 -0.54, 221.99 2.82, 220 10 M210 0 C217.72 -1.47, 219.62 1.94, 220 10 M220 10 C218.06 15.5, 219.17 18.79, 220 30 M220 10 C219.63 15.15, 219.01 20.28, 220 30 M220 30 C220.12 35.89, 218.26 41.83, 210 40 M220 30 C222 35.4, 218.86 39.51, 210 40 M210 40 C143.1 39.37, 75.15 41.41, 10 40 M210 40 C162.09 40.67, 116.55 40.51, 10 40 M10 40 C3.68 38.19, -0.14 35.14, 0 30 M10 40 C2.03 38.26, 0.73 35.23, 0 30 M0 30 C0.66 24.84, 2.1 16.34, 0 10 M0 30 C-0.41 23.47, 0.43 15.69, 0 10 M0 10 C1.69 3.4, 1.41 0.3, 10 0 M0 10 C-1.63 1.2, 1.66 1.61, 10 0" stroke="#000000" stroke-width="1" fill="none"></path></g><g transform="translate(290.97496939663677 158) rotate(0 41.21995544433594 24)"><text x="41.21995544433594" y="0" font-family="Virgil, Segoe UI Emoji" font-size="20px" fill="#000000" text-anchor="middle" style="white-space: pre;" direction="ltr" dominant-baseline="text-before-edge">store</text><text x="41.21995544433594" y="24" font-family="Virgil, Segoe UI Emoji" font-size="20px" fill="#000000" text-anchor="middle" style="white-space: pre;" direction="ltr" dominant-baseline="text-before-edge">(useRef)</text></g><g stroke-linecap="round" transform="translate(396.97496939663677 218) rotate(0 110 20)"><path d="M2.66 2.31 C2.66 2.31, 2.66 2.31, 2.66 2.31 M2.66 2.31 C2.66 2.31, 2.66 2.31, 2.66 2.31 M0.43 10.98 C4.96 6.72, 8.91 2.32, 10.27 -0.34 M0.43 10.98 C3.55 6.51, 7.13 3.06, 10.27 -0.34 M0.83 16.62 C7.31 10.93, 8.7 5.83, 13.29 2.28 M0.83 16.62 C5.13 12.45, 7.9 8.07, 13.29 2.28 M1.22 22.26 C8.67 16.33, 14.07 8.8, 18.28 2.64 M1.22 22.26 C7.06 15.07, 13.57 6.07, 18.28 2.64 M0.96 28.66 C5.6 19.72, 12.17 12.9, 23.27 3 M0.96 28.66 C7.06 20.92, 14.66 13.32, 23.27 3 M0.7 35.06 C10.42 24.19, 20.65 11.36, 28.91 2.6 M0.7 35.06 C11.84 23.16, 21.59 10.38, 28.91 2.6 M3.72 37.68 C13.75 29.34, 21.87 19.51, 33.9 2.97 M3.72 37.68 C10.8 30.09, 15.67 22.93, 33.9 2.97 M6.74 40.31 C16.4 28.65, 23.57 19.61, 39.54 2.57 M6.74 40.31 C13.97 31.04, 21.04 22.25, 39.54 2.57 M11.72 40.67 C22.03 28.61, 33.74 16.3, 44.53 2.93 M11.72 40.67 C19.87 31.34, 29.41 20.57, 44.53 2.93 M17.37 40.27 C31.77 24.86, 41.22 9.93, 50.17 2.54 M17.37 40.27 C28.65 28.58, 39.24 15.43, 50.17 2.54 M22.35 40.63 C34.55 29.19, 44.29 14.13, 55.16 2.9 M22.35 40.63 C35.59 27.12, 46 12.55, 55.16 2.9 M28 40.24 C40.29 27.22, 52.84 13.99, 60.8 2.5 M28 40.24 C37.1 28.94, 46.88 17.79, 60.8 2.5 M32.98 40.6 C42.84 28.64, 52.13 14.96, 65.79 2.86 M32.98 40.6 C44.87 26.4, 58.26 10.65, 65.79 2.86 M38.63 40.2 C44.79 30.83, 51.77 23.81, 71.43 2.47 M38.63 40.2 C50.08 27.73, 61.32 13.19, 71.43 2.47 M43.61 40.56 C52.11 31.55, 63.5 17.82, 76.42 2.83 M43.61 40.56 C51.52 31.17, 59.23 22.25, 76.42 2.83 M49.26 40.17 C59.43 30.63, 67.05 17.29, 81.4 3.19 M49.26 40.17 C60.11 28.51, 70.99 16.5, 81.4 3.19 M54.24 40.53 C61.34 29.72, 69.16 22.12, 87.05 2.79 M54.24 40.53 C64.54 28.52, 72.21 18.63, 87.05 2.79 M59.89 40.13 C66.43 31.41, 76.12 25.14, 92.03 3.15 M59.89 40.13 C73.17 25.58, 84.13 11.24, 92.03 3.15 M64.87 40.49 C70.06 30.15, 79.11 23.67, 97.68 2.76 M64.87 40.49 C76.03 28.24, 85.86 16.41, 97.68 2.76 M69.86 40.85 C79.15 31.4, 86.19 22.36, 102.66 3.12 M69.86 40.85 C83.09 27.15, 94.65 12.41, 102.66 3.12 M75.5 40.46 C85.87 27.71, 98.15 15.31, 108.31 2.72 M75.5 40.46 C86 28.06, 97.19 16.49, 108.31 2.72 M80.49 40.82 C88.37 30.85, 94.55 22.66, 113.29 3.08 M80.49 40.82 C90.98 29.54, 100.27 18.08, 113.29 3.08 M86.13 40.42 C95.27 32.25, 99.58 21.11, 118.94 2.69 M86.13 40.42 C96.48 27.85, 107.19 15.86, 118.94 2.69 M91.12 40.78 C104.53 27.42, 115.22 10.54, 123.92 3.05 M91.12 40.78 C100.26 29.49, 109.05 19.95, 123.92 3.05 M96.76 40.39 C102.78 30.17, 113.1 24.26, 129.57 2.65 M96.76 40.39 C103.77 30.48, 112.46 22, 129.57 2.65 M101.75 40.75 C109.86 31.44, 121.51 18.95, 134.55 3.01 M101.75 40.75 C114.16 27.13, 127.21 13.14, 134.55 3.01 M107.39 40.36 C117.87 30.42, 126.78 18.96, 139.54 3.37 M107.39 40.36 C117.15 28.72, 127.44 17.38, 139.54 3.37 M112.38 40.72 C126.49 24.16, 138.94 10.94, 145.18 2.98 M112.38 40.72 C123.98 27.43, 135.16 12.85, 145.18 2.98 M118.02 40.32 C130.61 25.83, 140.55 15.85, 150.17 3.34 M118.02 40.32 C126.88 30.1, 136.39 19.08, 150.17 3.34 M123.01 40.68 C134.2 27.66, 143.86 17.55, 155.81 2.95 M123.01 40.68 C133.82 27.44, 145.85 14.97, 155.81 2.95 M128 41.04 C139.74 25.49, 153.48 11.26, 160.8 3.31 M128 41.04 C138.54 29.77, 147.5 19.19, 160.8 3.31 M133.64 40.65 C142.94 30.49, 152.45 19.02, 166.44 2.91 M133.64 40.65 C146.42 27.47, 157.51 12.4, 166.44 2.91 M138.63 41.01 C144.35 31.65, 152.54 24.18, 171.43 3.27 M138.63 41.01 C149.63 28.67, 159.88 17.43, 171.43 3.27 M144.27 40.61 C153.41 28.92, 161.97 19.41, 177.07 2.88 M144.27 40.61 C150.88 32.62, 156.82 26.06, 177.07 2.88 M149.26 40.97 C157.98 34.58, 162.3 23.2, 182.06 3.24 M149.26 40.97 C161.77 27.53, 173.28 12.61, 182.06 3.24 M154.9 40.58 C164.82 26.79, 176.76 16.13, 187.7 2.84 M154.9 40.58 C165.92 27.68, 176.97 16.08, 187.7 2.84 M159.89 40.94 C170.02 31.9, 177.94 20.43, 192.69 3.2 M159.89 40.94 C168.78 29.49, 178.81 19.66, 192.69 3.2 M165.53 40.54 C178.72 27.47, 192.36 10.68, 198.33 2.81 M165.53 40.54 C178.68 26.19, 189.97 11.28, 198.33 2.81 M170.52 40.9 C178.63 31.08, 186.16 22.97, 203.32 3.17 M170.52 40.9 C180.96 28.75, 191.08 17.43, 203.32 3.17 M176.16 40.51 C184.92 33.79, 191.87 25.09, 208.31 3.53 M176.16 40.51 C184.9 30.1, 195.97 17.67, 208.31 3.53 M181.15 40.87 C191.6 25.2, 207.62 13.05, 215.26 1.62 M181.15 40.87 C192.7 26.86, 204.05 12.61, 215.26 1.62 M186.14 41.23 C198.55 26.72, 209.72 13.93, 218.28 4.25 M186.14 41.23 C198.71 28.22, 209.84 14.18, 218.28 4.25 M191.78 40.83 C198.96 35.01, 203.06 26.95, 221.3 6.87 M191.78 40.83 C200.22 30.81, 208.66 20.51, 221.3 6.87 M196.77 41.19 C201.44 34.43, 207.64 27.99, 221.04 13.27 M196.77 41.19 C201.29 35.95, 206.53 28.87, 221.04 13.27 M202.41 40.8 C208.41 35.01, 211.91 28.41, 220.78 19.67 M202.41 40.8 C208 34.42, 214.49 27.44, 220.78 19.67 M207.4 41.16 C210.93 36.42, 213.89 33.37, 221.17 25.31 M207.4 41.16 C212.41 35.71, 217.17 30.62, 221.17 25.31 M212.38 41.52 C214.61 37.31, 218.58 35.1, 220.91 31.71 M212.38 41.52 C213.86 39.16, 215.65 37.06, 220.91 31.71 M5.57 39.32 C5.57 39.32, 5.57 39.32, 5.57 39.32 M5.57 39.32 C5.57 39.32, 5.57 39.32, 5.57 39.32 M11.96 39.59 C8.56 36.82, 4.6 33.21, 2.91 31.71 M11.96 39.59 C9.65 37.3, 6.43 34.12, 2.91 31.71 M17.61 39.19 C11.77 35.89, 7.61 31.52, 2.51 26.07 M17.61 39.19 C15.06 37.5, 10.79 34.53, 2.51 26.07 M24.01 39.45 C18.6 34.24, 10.67 28.83, 2.87 21.08 M24.01 39.45 C17.06 32.98, 10.63 29.04, 2.87 21.08 M30.4 39.71 C22.74 34.83, 15.03 26.92, 2.48 15.44 M30.4 39.71 C22.02 33.59, 15.01 25.82, 2.48 15.44 M36.05 39.32 C24.81 31.92, 16.52 23.88, 1.33 9.14 M36.05 39.32 C28.86 32.35, 19.75 25.26, 1.33 9.14 M42.44 39.58 C34.38 29.63, 22.61 21.51, 2.44 4.81 M42.44 39.58 C31.78 31.22, 21.86 20.98, 2.44 4.81 M48.09 39.19 C38.73 32.39, 27.05 23.65, 4.31 1.13 M48.09 39.19 C32.08 26.19, 17.43 11.85, 4.31 1.13 M54.48 39.45 C35.21 23.73, 19.78 8.14, 8.45 -0.57 M54.48 39.45 C38.54 26.03, 23.85 12.19, 8.45 -0.57 M60.88 39.71 C49.11 29.45, 38.06 19.07, 12.58 -2.28 M60.88 39.71 C50.14 30.59, 39.27 19.24, 12.58 -2.28 M66.53 39.31 C55.69 29.6, 45.15 20.08, 18.22 -2.67 M66.53 39.31 C47.31 22.44, 30.52 7.71, 18.22 -2.67 M72.92 39.58 C62.52 31.28, 50.06 21.15, 24.62 -2.41 M72.92 39.58 C54.78 24.41, 36.46 7.66, 24.62 -2.41 M79.32 39.84 C63.4 23.27, 48.74 11.23, 30.26 -2.81 M79.32 39.84 C66.56 29.66, 54.62 17.7, 30.26 -2.81 M84.96 39.44 C69.54 28.5, 58.48 15.76, 36.66 -2.55 M84.96 39.44 C67.78 23.23, 50.65 8.77, 36.66 -2.55 M91.36 39.7 C76.84 29.01, 65.06 14.52, 43.06 -2.28 M91.36 39.7 C75.85 26.95, 61.48 15.17, 43.06 -2.28 M97.76 39.97 C81.54 27.01, 66.93 14.16, 48.7 -2.68 M97.76 39.97 C77.88 23.25, 58.49 6.68, 48.7 -2.68 M103.4 39.57 C88.57 25.8, 73.17 12.79, 55.1 -2.42 M103.4 39.57 C92.48 30.89, 81.14 21.31, 55.1 -2.42 M109.8 39.83 C95.3 26.68, 82.33 15.51, 61.5 -2.16 M109.8 39.83 C95.87 27.34, 80.77 15.79, 61.5 -2.16 M115.44 39.44 C104.1 29.45, 91.16 16.6, 67.14 -2.55 M115.44 39.44 C105.93 30.24, 94.15 20.96, 67.14 -2.55 M121.84 39.7 C106 24.83, 87.85 7.84, 73.54 -2.29 M121.84 39.7 C107.42 24.77, 91.74 12.39, 73.54 -2.29 M128.24 39.96 C110.37 23.6, 90.82 7.97, 79.18 -2.68 M128.24 39.96 C116.92 29, 104.01 18.31, 79.18 -2.68 M133.88 39.57 C118.44 24.91, 101.51 12.04, 85.58 -2.42 M133.88 39.57 C116.91 25.59, 98.52 9.17, 85.58 -2.42 M140.28 39.83 C122.97 24.97, 108.54 9.52, 91.98 -2.16 M140.28 39.83 C123.81 24.85, 105.43 9.49, 91.98 -2.16 M146.68 40.09 C135.91 29.3, 122.66 20.27, 97.62 -2.55 M146.68 40.09 C132.4 26.91, 116.97 13.28, 97.62 -2.55 M152.32 39.69 C140.68 29.3, 126.89 17.42, 104.02 -2.29 M152.32 39.69 C134.16 23.3, 115.33 7.91, 104.02 -2.29 M158.72 39.96 C145.45 29.88, 130.43 15.44, 110.42 -2.03 M158.72 39.96 C143.86 26.98, 127.83 13.23, 110.42 -2.03 M164.36 39.56 C152.94 28.59, 142.06 22.41, 116.06 -2.43 M164.36 39.56 C153.82 29.96, 142.5 21.33, 116.06 -2.43 M170.76 39.82 C154.43 26.44, 135.44 9.37, 122.46 -2.16 M170.76 39.82 C154.42 25.91, 136.87 10.35, 122.46 -2.16 M177.16 40.08 C166.38 30.98, 156.93 24.38, 128.86 -1.9 M177.16 40.08 C161.98 26.11, 144.34 11.86, 128.86 -1.9 M182.8 39.69 C166.82 26.84, 154.59 15.59, 134.5 -2.3 M182.8 39.69 C173.13 32.19, 164.01 23.44, 134.5 -2.3 M189.2 39.95 C171.42 25.19, 154.26 12.7, 140.9 -2.04 M189.2 39.95 C173.98 26.11, 157.54 12.3, 140.9 -2.04 M195.6 40.21 C182.61 28.05, 171.7 17.18, 146.54 -2.43 M195.6 40.21 C181.78 27.04, 166.16 14.2, 146.54 -2.43 M201.24 39.82 C188.77 26.44, 172.21 17.32, 152.94 -2.17 M201.24 39.82 C186.7 27.54, 173.78 15.49, 152.94 -2.17 M207.64 40.08 C192.93 27.82, 175.46 11.68, 159.34 -1.91 M207.64 40.08 C193.25 27.84, 180.43 16.74, 159.34 -1.91 M211.77 38.37 C195.39 23.74, 176.87 6.16, 164.98 -2.3 M211.77 38.37 C198.12 26.81, 184.8 15.46, 164.98 -2.3 M215.9 36.67 C202.4 24.44, 192.13 14.95, 171.38 -2.04 M215.9 36.67 C204.94 27.31, 192.46 17.15, 171.38 -2.04 M220.04 34.96 C208.54 25.47, 192.95 12.55, 177.77 -1.78 M220.04 34.96 C208.25 26.35, 198.62 16.17, 177.77 -1.78 M221.91 31.28 C211.69 24.49, 204.71 14.58, 183.42 -2.17 M221.91 31.28 C210.53 21.78, 197.78 11, 183.42 -2.17 M222.27 26.3 C211.97 19.82, 204.74 10.05, 189.81 -1.91 M222.27 26.3 C212.68 18.81, 202.99 8.56, 189.81 -1.91 M221.87 20.65 C214.17 16.87, 209.04 11.32, 195.46 -2.31 M221.87 20.65 C212.92 12.7, 202.24 2.72, 195.46 -2.31 M222.23 15.67 C214.05 10.05, 205.71 2.94, 201.86 -2.05 M222.23 15.67 C217.6 11.38, 211.98 6.7, 201.86 -2.05 M221.84 10.02 C218.66 6.48, 216.08 5.72, 208.25 -1.78 M221.84 10.02 C218.83 6.81, 215.98 4.78, 208.25 -1.78" stroke="#fd7e14" stroke-width="0.5" fill="none"></path><path d="M10 0 M10 0 C74.46 -1.92, 140.76 -0.09, 210 0 M10 0 C69.58 1.82, 131.14 1.12, 210 0 M210 0 C217.35 0.46, 221.56 1.73, 220 10 M210 0 C216.49 1.94, 220.84 2.16, 220 10 M220 10 C220.62 17.04, 221.08 22.8, 220 30 M220 10 C219.53 17.46, 219.53 25.03, 220 30 M220 30 C221.07 35.05, 215.96 40.98, 210 40 M220 30 C220.23 36.89, 217.81 39.92, 210 40 M210 40 C141.69 40.37, 70.87 40.28, 10 40 M210 40 C132.68 38.44, 54.21 38.36, 10 40 M10 40 C4.91 41.54, 1.64 34.9, 0 30 M10 40 C4.28 37.77, -1.7 36.74, 0 30 M0 30 C1.32 26.8, -2.06 22.8, 0 10 M0 30 C-0.1 23.21, 0.71 15.08, 0 10 M0 10 C1.28 3.43, 2.9 1.24, 10 0 M0 10 C-0.03 5.53, 1.26 0.2, 10 0" stroke="#000000" stroke-width="1" fill="none"></path></g><g transform="translate(276.97496939663677 218) rotate(0 53.409934997558594 24)"><text x="53.409934997558594" y="0" font-family="Virgil, Segoe UI Emoji" font-size="20px" fill="#000000" text-anchor="middle" style="white-space: pre;" direction="ltr" dominant-baseline="text-before-edge">subscribers</text><text x="53.409934997558594" y="24" font-family="Virgil, Segoe UI Emoji" font-size="20px" fill="#000000" text-anchor="middle" style="white-space: pre;" direction="ltr" dominant-baseline="text-before-edge">(useRef)</text></g><g stroke-linecap="round" transform="translate(256.97496939663677 286) rotate(0 20 20)"><path d="M27.66 3.64 L37.02 19.35 L19.41 37.68 L5.02 24.32 L1.37 19.82 L19.33 2.72 L20.96 2.32 L26.66 5.47" stroke="none" stroke-width="0" fill="#12b886"></path><path d="M26.25 5.25 M26.25 5.25 C27.75 9.63, 32.04 12.73, 34.75 15.75 M26.25 5.25 C29.54 8.82, 31.69 12.01, 34.75 15.75 M34.75 15.75 C41.08 22.48, 40.48 22.68, 34.75 26.25 M34.75 15.75 C37.81 19.53, 38.79 22.55, 34.75 26.25 M34.75 26.25 C32.43 28.37, 30.19 30.56, 26.25 34.75 M34.75 26.25 C32.25 28.74, 30.77 30.32, 26.25 34.75 M26.25 34.75 C19.65 39.51, 19.15 40.34, 15.75 34.75 M26.25 34.75 C20.71 40.14, 20.84 39.91, 15.75 34.75 M15.75 34.75 C12.56 30.89, 7.19 29.89, 5.25 26.25 M15.75 34.75 C12.25 31.96, 10.53 29.92, 5.25 26.25 M5.25 26.25 C-1.9 19.58, 0.84 20.81, 5.25 15.75 M5.25 26.25 C-2.07 21.06, 2.12 19.61, 5.25 15.75 M5.25 15.75 C8.04 12.74, 13.62 7.98, 15.75 5.25 M5.25 15.75 C7.52 14.15, 10.24 10.49, 15.75 5.25 M15.75 5.25 C20.99 1.19, 22.16 0.74, 26.25 5.25 M15.75 5.25 C21.82 0.77, 22.68 1.17, 26.25 5.25" stroke="#000000" stroke-width="1" fill="none"></path></g><g transform="translate(304.35778189663677 293.35546875) rotate(0 93.97993469238281 12)"><text x="0" y="0" font-family="Virgil, Segoe UI Emoji" font-size="20px" fill="#000000" text-anchor="start" style="white-space: pre;" direction="ltr" dominant-baseline="text-before-edge">GET (useCallBack)</text></g><g stroke-linecap="round" transform="translate(256.97496939663677 338) rotate(0 20 20)"><path d="M28.17 4.63 L38.56 21.97 L20.77 38.99 L4.66 26.22 L1.41 19.98 L21.8 1.17 L20.29 -0.14 L26.41 5.78" stroke="none" stroke-width="0" fill="#fa5252"></path><path d="M26.25 5.25 M26.25 5.25 C27.97 7.45, 29.2 10.59, 34.75 15.75 M26.25 5.25 C28.22 7.65, 31.3 11.72, 34.75 15.75 M34.75 15.75 C40.54 19.09, 38.04 21.71, 34.75 26.25 M34.75 15.75 C40.63 19.96, 38.73 20.86, 34.75 26.25 M34.75 26.25 C32.73 28.15, 31.72 30.5, 26.25 34.75 M34.75 26.25 C32.48 28.73, 30.19 30.36, 26.25 34.75 M26.25 34.75 C20.25 40.8, 19.85 40.83, 15.75 34.75 M26.25 34.75 C19.01 37.95, 19.44 40.68, 15.75 34.75 M15.75 34.75 C12.67 30.91, 6.55 28.81, 5.25 26.25 M15.75 34.75 C12.74 32.14, 10.4 30.68, 5.25 26.25 M5.25 26.25 C-0.93 22.43, -1.89 19.09, 5.25 15.75 M5.25 26.25 C-0.32 21.22, 1.67 21.29, 5.25 15.75 M5.25 15.75 C9.14 13.36, 11.74 9.94, 15.75 5.25 M5.25 15.75 C8.48 12.39, 11.95 9.26, 15.75 5.25 M15.75 5.25 C22.7 0.39, 22.66 1.55, 26.25 5.25 M15.75 5.25 C18.99 1.57, 20.5 1.3, 26.25 5.25" stroke="#000000" stroke-width="1" fill="none"></path></g><g transform="translate(303.35778189663677 345.35546875) rotate(0 92.16992950439453 12)"><text x="0" y="0" font-family="Virgil, Segoe UI Emoji" font-size="20px" fill="#000000" text-anchor="start" style="white-space: pre;" direction="ltr" dominant-baseline="text-before-edge">SET (useCallBack)</text></g><g stroke-linecap="round" transform="translate(256.97496939663677 392) rotate(0 20 20)"><path d="M27.66 3.79 L40.26 22.39 L22.27 36.8 L7.06 27.15 L1.07 19.64 L18.09 1.28 L23.32 0.51 L24.83 5.69" stroke="none" stroke-width="0" fill="#fd7e14"></path><path d="M26.25 5.25 M26.25 5.25 C27.12 8.8, 29.71 10.94, 34.75 15.75 M26.25 5.25 C28.94 8.91, 31.48 12.36, 34.75 15.75 M34.75 15.75 C39.24 19.02, 41.41 20.28, 34.75 26.25 M34.75 15.75 C40.65 19.78, 39.16 22.13, 34.75 26.25 M34.75 26.25 C34.16 29, 30.73 28.81, 26.25 34.75 M34.75 26.25 C31.4 29.91, 27.75 32.63, 26.25 34.75 M26.25 34.75 C21.79 38.45, 19.06 38.49, 15.75 34.75 M26.25 34.75 C19.51 39.19, 21.99 40.72, 15.75 34.75 M15.75 34.75 C12.8 32.77, 11.32 29.84, 5.25 26.25 M15.75 34.75 C11.97 31.94, 7.36 28.14, 5.25 26.25 M5.25 26.25 C1.9 21.97, -0.19 19.93, 5.25 15.75 M5.25 26.25 C1.34 21.91, 2.06 23.22, 5.25 15.75 M5.25 15.75 C9.78 12.01, 13.15 9.15, 15.75 5.25 M5.25 15.75 C8.69 11.66, 12.53 7.69, 15.75 5.25 M15.75 5.25 C19.66 0.98, 19.13 1.41, 26.25 5.25 M15.75 5.25 C18.92 0.29, 19.22 0.46, 26.25 5.25" stroke="#000000" stroke-width="1" fill="none"></path></g><g transform="translate(303.35778189663677 400.35546875) rotate(0 130.55990600585938 12)"><text x="0" y="0" font-family="Virgil, Segoe UI Emoji" font-size="20px" fill="#000000" text-anchor="start" style="white-space: pre;" direction="ltr" dominant-baseline="text-before-edge">SUBSCRIBE (useCallBack)</text></g><g stroke-linecap="round" transform="translate(296.97496939663677 538) rotate(0 140 70)"><path d="M32 0 M32 0 C82.57 -3.28, 134.54 -1.26, 248 0 M248 0 C269 1.27, 280.19 9.77, 280 32 M280 32 C279.57 57.62, 279.18 83.48, 280 108 M280 108 C279.16 130.67, 270.46 138.8, 248 140 M248 140 C180.08 141.07, 114.43 143.09, 32 140 M32 140 C10.84 138.79, 0.23 127.99, 0 108 M0 108 C2.21 85.53, -0.6 60.69, 0 32 M0 32 C0.72 10.03, 11.94 0.71, 32 0" stroke="#495057" stroke-width="2.5" fill="none" stroke-dasharray="8 10"></path></g><g transform="translate(306.97496939663677 503) rotate(0 128.89987182617188 12)"><text x="128.89987182617188" y="0" font-family="Virgil, Segoe UI Emoji" font-size="20px" fill="#d9480f" text-anchor="middle" style="white-space: pre;" direction="ltr" dominant-baseline="text-before-edge">FastContextStoreProvider</text></g><g stroke-linecap="round" transform="translate(316.97496939663677 578) rotate(0 120 30)"><path d="M15 0 M15 0 C84.35 -0.19, 151.79 1.82, 225 0 M15 0 C98.76 -0.94, 181.61 -0.41, 225 0 M225 0 C233.86 -0.46, 238.39 6.02, 240 15 M225 0 C234.54 -1.09, 238.81 5.88, 240 15 M240 15 C239.7 26.02, 241.05 37.08, 240 45 M240 15 C240.91 23.48, 239.4 34.34, 240 45 M240 45 C240.43 54.64, 234.15 59.45, 225 60 M240 45 C241.25 52.98, 236.42 58.04, 225 60 M225 60 C180.04 62.02, 134.86 61.29, 15 60 M225 60 C144.13 58.91, 64.04 59.18, 15 60 M15 60 C5.44 61.73, -0.45 55.92, 0 45 M15 60 C3.19 58.91, -1.8 54.68, 0 45 M0 45 C-1.02 37.19, -1.81 26.96, 0 15 M0 45 C-0.05 36.81, 0.27 29.76, 0 15 M0 15 C0.64 6.56, 4.5 -0.81, 15 0 M0 15 C0.34 5.77, 3.47 1.14, 15 0" stroke="#0b7285" stroke-width="4" fill="none"></path></g><g transform="translate(356.97496939663677 598) rotate(0 66.0799331665039 12)"><text x="66.0799331665039" y="0" font-family="Virgil, Segoe UI Emoji" font-size="20px" fill="#0b7285" text-anchor="middle" style="white-space: pre;" direction="ltr" dominant-baseline="text-before-edge">StoreContext</text></g><g transform="translate(336.383477697418 551.65390625) rotate(0 95.23992919921875 9.600000000000023)"><text x="95.23992919921875" y="0" font-family="Virgil, Segoe UI Emoji" font-size="16px" fill="#495057" text-anchor="middle" style="white-space: pre;" direction="ltr" dominant-baseline="text-before-edge">&lt;StoreContext.Provider&gt;</text></g><g transform="translate(332.97496939663677 647) rotate(0 99.23992919921875 9.600000000000023)"><text x="99.23992919921875" y="0" font-family="Virgil, Segoe UI Emoji" font-size="16px" fill="#495057" text-anchor="middle" style="white-space: pre;" direction="ltr" dominant-baseline="text-before-edge">&lt;/StoreContext.Provider&gt;</text></g><g stroke-linecap="round" transform="translate(236.97496939663677 758) rotate(0 200 120)"><path d="M32 0 M32 0 C114.45 2.94, 197.63 2.1, 368 0 M368 0 C390.14 1.04, 398.11 11.64, 400 32 M400 32 C402.04 75.25, 402.14 119.87, 400 208 M400 208 C401.49 231.26, 387.42 238.79, 368 240 M368 240 C288.17 240.09, 209.8 239.74, 32 240 M32 240 C10.15 239.74, 0.93 230.52, 0 208 M0 208 C-1.12 160.99, 0.32 109.48, 0 32 M0 32 C1.22 9.48, 11.1 -0.87, 32 0" stroke="#495057" stroke-width="2.5" fill="none" stroke-dasharray="8 10"></path></g><g transform="translate(16.974969396636766 278) rotate(0 46.739959716796875 48)"><text x="46.739959716796875" y="0" font-family="Virgil, Segoe UI Emoji" font-size="20px" fill="#495057" text-anchor="middle" style="white-space: pre;" direction="ltr" dominant-baseline="text-before-edge">provides</text><text x="46.739959716796875" y="24" font-family="Virgil, Segoe UI Emoji" font-size="20px" fill="#495057" text-anchor="middle" style="white-space: pre;" direction="ltr" dominant-baseline="text-before-edge">the value</text><text x="46.739959716796875" y="48" font-family="Virgil, Segoe UI Emoji" font-size="20px" fill="#495057" text-anchor="middle" style="white-space: pre;" direction="ltr" dominant-baseline="text-before-edge">for the</text><text x="46.739959716796875" y="72" font-family="Virgil, Segoe UI Emoji" font-size="20px" fill="#495057" text-anchor="middle" style="white-space: pre;" direction="ltr" dominant-baseline="text-before-edge">context</text></g><g transform="translate(311.859307775543 725.54296875) rotate(0 115.68988037109375 12)"><text x="115.68988037109375" y="0" font-family="Virgil, Segoe UI Emoji" font-size="20px" fill="#d9480f" text-anchor="middle" style="white-space: pre;" direction="ltr" dominant-baseline="text-before-edge">useStore (custom hook)</text></g><g stroke-linecap="round" transform="translate(396.97496939663677 798) rotate(0 110 20)"><path d="M2.66 2.31 C2.66 2.31, 2.66 2.31, 2.66 2.31 M2.66 2.31 C2.66 2.31, 2.66 2.31, 2.66 2.31 M0.43 10.98 C2.17 8.39, 6.66 4.03, 10.27 -0.34 M0.43 10.98 C3.15 6.49, 6.98 3.19, 10.27 -0.34 M0.83 16.62 C5.35 13.08, 7.65 6.11, 13.29 2.28 M0.83 16.62 C4.73 11.02, 10.54 4.59, 13.29 2.28 M1.22 22.26 C6.84 15.12, 10.53 12.96, 18.28 2.64 M1.22 22.26 C8.07 14.37, 14.91 6.37, 18.28 2.64 M0.96 28.66 C8.14 17.97, 16.87 8.7, 23.27 3 M0.96 28.66 C9.7 19.24, 16.39 10.12, 23.27 3 M0.7 35.06 C8.86 22.58, 22.95 12.68, 28.91 2.6 M0.7 35.06 C9.77 24.5, 18.52 14.7, 28.91 2.6 M3.72 37.68 C9.87 29.79, 17.27 18.8, 33.9 2.97 M3.72 37.68 C11.23 30.05, 16.89 22.07, 33.9 2.97 M6.74 40.31 C19.2 26.48, 31.37 11.16, 39.54 2.57 M6.74 40.31 C20.49 25.9, 33.17 10.39, 39.54 2.57 M11.72 40.67 C25.95 27.65, 37.78 11.51, 44.53 2.93 M11.72 40.67 C23.31 26.61, 35.76 12.24, 44.53 2.93 M17.37 40.27 C31.25 25.27, 43.32 12.02, 50.17 2.54 M17.37 40.27 C26.09 28.41, 35.46 18.12, 50.17 2.54 M22.35 40.63 C35.42 25.27, 46.02 13.19, 55.16 2.9 M22.35 40.63 C30.59 32.06, 37.18 23.34, 55.16 2.9 M28 40.24 C37.57 33.27, 43.89 20.95, 60.8 2.5 M28 40.24 C37.09 28.26, 48.06 18.52, 60.8 2.5 M32.98 40.6 C44.8 28.7, 54.8 14.48, 65.79 2.86 M32.98 40.6 C39.64 32.01, 47.64 22.79, 65.79 2.86 M38.63 40.2 C46.84 31.58, 56.41 22.39, 71.43 2.47 M38.63 40.2 C50.84 27.26, 61.78 14.52, 71.43 2.47 M43.61 40.56 C52 31.75, 63.02 19.51, 76.42 2.83 M43.61 40.56 C51.51 32.93, 58.51 23.88, 76.42 2.83 M49.26 40.17 C60.71 27.78, 70.61 15.81, 81.4 3.19 M49.26 40.17 C56.55 33.08, 62.51 24.59, 81.4 3.19 M54.24 40.53 C67.14 25.97, 79.82 11.55, 87.05 2.79 M54.24 40.53 C66.54 28.68, 76.22 13.91, 87.05 2.79 M59.89 40.13 C68.49 32.78, 76.75 23.89, 92.03 3.15 M59.89 40.13 C68.54 30.42, 77.26 21.06, 92.03 3.15 M64.87 40.49 C75.82 30.68, 84.13 17.7, 97.68 2.76 M64.87 40.49 C73.36 28.88, 83 18.75, 97.68 2.76 M69.86 40.85 C81.19 29.58, 88.44 16.75, 102.66 3.12 M69.86 40.85 C80.49 28.98, 90.46 16, 102.66 3.12 M75.5 40.46 C84.01 28.52, 94.39 18.67, 108.31 2.72 M75.5 40.46 C82.4 32.31, 89.22 24.49, 108.31 2.72 M80.49 40.82 C91.81 28.14, 100.33 15.32, 113.29 3.08 M80.49 40.82 C87.61 31.58, 95.54 23.13, 113.29 3.08 M86.13 40.42 C96.81 27.45, 111.55 9.44, 118.94 2.69 M86.13 40.42 C95.04 28.4, 106.82 17.6, 118.94 2.69 M91.12 40.78 C101.65 30.56, 113.02 17.84, 123.92 3.05 M91.12 40.78 C99.12 31.68, 107.52 20.98, 123.92 3.05 M96.76 40.39 C104.33 28.48, 115.97 18.09, 129.57 2.65 M96.76 40.39 C109.98 25.32, 123.16 10.54, 129.57 2.65 M101.75 40.75 C111.56 31.57, 121.22 16.55, 134.55 3.01 M101.75 40.75 C110.66 28.75, 120.48 19.33, 134.55 3.01 M107.39 40.36 C118.89 26.69, 127.62 17.76, 139.54 3.37 M107.39 40.36 C116.64 31.32, 124.8 21.74, 139.54 3.37 M112.38 40.72 C121.7 29.79, 133.67 16.75, 145.18 2.98 M112.38 40.72 C120.19 30.35, 130.73 20.01, 145.18 2.98 M118.02 40.32 C132.6 26.86, 145.17 10.68, 150.17 3.34 M118.02 40.32 C126.08 32.02, 132.76 23.5, 150.17 3.34 M123.01 40.68 C133.47 32.57, 140.51 21.17, 155.81 2.95 M123.01 40.68 C135.03 26.02, 146.46 13.18, 155.81 2.95 M128 41.04 C136.91 29.51, 149.87 20, 160.8 3.31 M128 41.04 C140.64 28.32, 151.03 13.09, 160.8 3.31 M133.64 40.65 C147.91 26.04, 159.36 9.45, 166.44 2.91 M133.64 40.65 C144.45 29.12, 154.54 15.9, 166.44 2.91 M138.63 41.01 C150.31 26.93, 164.4 11.8, 171.43 3.27 M138.63 41.01 C145.88 32.83, 152.12 24.62, 171.43 3.27 M144.27 40.61 C150.15 31.08, 160.4 23.27, 177.07 2.88 M144.27 40.61 C155.89 26.73, 169.13 11.77, 177.07 2.88 M149.26 40.97 C158.37 28.09, 171.09 19.45, 182.06 3.24 M149.26 40.97 C157.6 31.39, 166.64 20.84, 182.06 3.24 M154.9 40.58 C165.17 26.66, 177.18 13.92, 187.7 2.84 M154.9 40.58 C166.98 27.85, 177.33 13.33, 187.7 2.84 M159.89 40.94 C165.87 34.85, 174.36 23.84, 192.69 3.2 M159.89 40.94 C173.04 27.15, 185.46 12.39, 192.69 3.2 M165.53 40.54 C175.68 28.09, 182.91 19.87, 198.33 2.81 M165.53 40.54 C177.21 27.34, 188.62 15.4, 198.33 2.81 M170.52 40.9 C184.8 25.46, 195.84 11.63, 203.32 3.17 M170.52 40.9 C181.09 28.5, 191.75 16.83, 203.32 3.17 M176.16 40.51 C189.44 25.28, 200.52 9.51, 208.31 3.53 M176.16 40.51 C182.22 33.25, 189.81 25.64, 208.31 3.53 M181.15 40.87 C189.96 31.26, 201.51 17.28, 215.26 1.62 M181.15 40.87 C191.92 28.59, 202.69 15.06, 215.26 1.62 M186.14 41.23 C196.18 29.33, 204.25 18.83, 218.28 4.25 M186.14 41.23 C195.22 30.37, 206.72 18.82, 218.28 4.25 M191.78 40.83 C197 33.79, 204.19 23.29, 221.3 6.87 M191.78 40.83 C198.52 32.39, 205.35 25.48, 221.3 6.87 M196.77 41.19 C203.45 33.58, 209.71 27.84, 221.04 13.27 M196.77 41.19 C205.1 30.93, 213.91 21.47, 221.04 13.27 M202.41 40.8 C209.11 35.89, 214.49 28.36, 220.78 19.67 M202.41 40.8 C210.31 32.62, 215.6 25.22, 220.78 19.67 M207.4 41.16 C209.08 36.38, 214.44 34.24, 221.17 25.31 M207.4 41.16 C213.22 35.99, 217.61 29.83, 221.17 25.31 M212.38 41.52 C215.12 39.07, 215.21 36.93, 220.91 31.71 M212.38 41.52 C214.26 38.85, 216.89 36.64, 220.91 31.71" stroke="#868e96" stroke-width="0.5" fill="none"></path><path d="M10 0 M10 0 C84.57 0.38, 162.72 -0.08, 210 0 M10 0 C77.96 1.52, 146.6 1.79, 210 0 M210 0 C217.06 0.97, 219.49 4.26, 220 10 M210 0 C216.44 -1.5, 219.02 1.54, 220 10 M220 10 C219.56 16.26, 221.27 26.1, 220 30 M220 10 C219.03 15.11, 219.44 20.44, 220 30 M220 30 C221.89 37.51, 218.5 40.97, 210 40 M220 30 C219.96 34.95, 215.56 37.73, 210 40 M210 40 C164.08 43.06, 119.53 41.53, 10 40 M210 40 C145.74 39.91, 81.43 39.57, 10 40 M10 40 C2.32 40.92, 1.32 36.93, 0 30 M10 40 C2.92 40.29, -0.3 38.64, 0 30 M0 30 C-0.07 26.48, -1.78 22.71, 0 10 M0 30 C0.88 25.23, 0.45 21.03, 0 10 M0 10 C-0.08 5.04, 3.32 0.37, 10 0 M0 10 C-2.29 4.67, 4.44 1.2, 10 0" stroke="#000000" stroke-width="1" fill="none"></path></g><g transform="translate(262.0449919796446 793) rotate(0 63.149932861328125 24)"><text x="63.149932861328125" y="0" font-family="Virgil, Segoe UI Emoji" font-size="20px" fill="#000000" text-anchor="middle" style="white-space: pre;" direction="ltr" dominant-baseline="text-before-edge">store</text><text x="63.149932861328125" y="24" font-family="Virgil, Segoe UI Emoji" font-size="20px" fill="#000000" text-anchor="middle" style="white-space: pre;" direction="ltr" dominant-baseline="text-before-edge">(useContext)</text></g><g mask="url(#mask-KZpZq2IXKk9lEoYKI-TuH)" stroke-linecap="round"><g transform="translate(242.3522628198624 639.0241608863646) rotate(0 -73.35709934259069 88.84320339309306)"><path d="M0.63 -1.07 C-23.56 2.06, -120.08 -0.58, -144.05 19.37 C-168.01 39.32, -169.83 92.06, -143.18 118.63 C-116.52 145.19, -10.5 168.74, 15.88 178.76" stroke="#000000" stroke-width="2.5" fill="none" stroke-dasharray="8 10"></path></g><g transform="translate(242.3522628198624 639.0241608863646) rotate(0 -73.35709934259069 88.84320339309306)"><path d="M-15.85 179.3 C-1.74 179.95, 8.72 180.4, 15.52 178.89" stroke="#000000" stroke-width="2.5" fill="none"></path></g><g transform="translate(242.3522628198624 639.0241608863646) rotate(0 -73.35709934259069 88.84320339309306)"><path d="M-9.91 159.66 C1.98 168, 10.12 176.12, 15.52 178.89" stroke="#000000" stroke-width="2.5" fill="none"></path></g></g><mask id="mask-KZpZq2IXKk9lEoYKI-TuH"><rect x="0" y="0" fill="#fff" width="500.7522628198624" height="918"></rect><rect x="10" y="648.1261686803657" fill="#000" width="139.55990600585938" height="120" opacity="1"></rect></mask><g transform="translate(10 648.1261686803657) rotate(0 158.99516347727172 79.74119559909195)"><text x="69.77995300292969" y="0" font-family="Virgil, Segoe UI Emoji" font-size="20px" fill="#000000" text-anchor="middle" style="white-space: pre;" direction="ltr" dominant-baseline="text-before-edge">hook can only </text><text x="69.77995300292969" y="24" font-family="Virgil, Segoe UI Emoji" font-size="20px" fill="#000000" text-anchor="middle" style="white-space: pre;" direction="ltr" dominant-baseline="text-before-edge">be used by</text><text x="69.77995300292969" y="48" font-family="Virgil, Segoe UI Emoji" font-size="20px" fill="#000000" text-anchor="middle" style="white-space: pre;" direction="ltr" dominant-baseline="text-before-edge">consumers</text><text x="69.77995300292969" y="72" font-family="Virgil, Segoe UI Emoji" font-size="20px" fill="#000000" text-anchor="middle" style="white-space: pre;" direction="ltr" dominant-baseline="text-before-edge">wrapped by</text><text x="69.77995300292969" y="96" font-family="Virgil, Segoe UI Emoji" font-size="20px" fill="#000000" text-anchor="middle" style="white-space: pre;" direction="ltr" dominant-baseline="text-before-edge">context</text></g><g stroke-linecap="round" transform="translate(396.97496939663677 858) rotate(0 110 20)"><path d="M2.66 2.31 C2.66 2.31, 2.66 2.31, 2.66 2.31 M2.66 2.31 C2.66 2.31, 2.66 2.31, 2.66 2.31 M3.45 13.6 C5.6 10.46, 7.84 9.3, 13.29 2.28 M3.45 13.6 C6.14 10.54, 8.67 8.18, 13.29 2.28 M4.24 24.89 C9.86 16.88, 16.65 10.42, 23.27 3 M4.24 24.89 C10.3 19.3, 15.68 12.44, 23.27 3 M3.72 37.68 C17.04 24.19, 25.09 12.3, 33.9 2.97 M3.72 37.68 C10.54 28.72, 18.96 21.05, 33.9 2.97 M9.75 42.93 C24.06 29.43, 35.55 13.98, 44.53 2.93 M9.75 42.93 C17.61 34.73, 23.38 26.53, 44.53 2.93 M20.39 42.9 C28.39 32.16, 38.6 22.92, 55.16 2.9 M20.39 42.9 C32.37 27.97, 46.67 12.45, 55.16 2.9 M31.02 42.86 C41.93 30.25, 54.48 17.18, 65.79 2.86 M31.02 42.86 C42.4 30.07, 52.39 16.96, 65.79 2.86 M41.65 42.83 C49.82 34.05, 55.37 26.89, 76.42 2.83 M41.65 42.83 C52.77 28.27, 65.38 15.05, 76.42 2.83 M52.28 42.79 C64.13 31.65, 72.66 17.23, 87.05 2.79 M52.28 42.79 C62.1 33.69, 69.44 23.91, 87.05 2.79 M62.91 42.76 C72.33 33.4, 78.07 24.67, 97.68 2.76 M62.91 42.76 C71.68 34.16, 79.56 23.88, 97.68 2.76 M72.88 43.48 C82.46 28.81, 93.85 17.45, 108.31 2.72 M72.88 43.48 C85.03 29.58, 98.12 15.94, 108.31 2.72 M83.51 43.44 C94.51 31.81, 105.89 17.46, 118.94 2.69 M83.51 43.44 C90.9 35.71, 98.25 26.77, 118.94 2.69 M94.14 43.41 C104.02 34.38, 112.5 20.3, 129.57 2.65 M94.14 43.41 C103.86 31.33, 113.12 20.22, 129.57 2.65 M104.77 43.37 C112.99 30.24, 123.76 19.66, 139.54 3.37 M104.77 43.37 C117 28.35, 132.51 11.67, 139.54 3.37 M115.4 43.34 C127.14 31.56, 136.73 19.02, 150.17 3.34 M115.4 43.34 C122.95 33.54, 130.56 26.28, 150.17 3.34 M126.03 43.31 C135.03 34.37, 141.9 25.83, 160.8 3.31 M126.03 43.31 C139 28.37, 151.55 12.58, 160.8 3.31 M136.66 43.27 C150.61 29.69, 163.41 13.61, 171.43 3.27 M136.66 43.27 C146.65 30.21, 159.03 19.02, 171.43 3.27 M147.29 43.24 C160.93 29.57, 173.19 16.03, 182.06 3.24 M147.29 43.24 C160.27 27.54, 173.03 13.72, 182.06 3.24 M157.92 43.2 C171.27 28.29, 185.92 11.71, 192.69 3.2 M157.92 43.2 C171.57 28.79, 184.22 13.45, 192.69 3.2 M168.55 43.17 C178.98 32.89, 189.35 18.65, 203.32 3.17 M168.55 43.17 C183.1 28.5, 196.43 12.15, 203.32 3.17 M179.18 43.13 C188.41 32.62, 196.59 22.98, 215.26 1.62 M179.18 43.13 C191.95 27.64, 205.3 12.88, 215.26 1.62 M189.15 43.85 C199.69 33.06, 206.85 23.57, 221.3 6.87 M189.15 43.85 C198.33 34.27, 205.93 24.27, 221.3 6.87 M199.78 43.82 C206.41 36.91, 211.21 29.29, 220.78 19.67 M199.78 43.82 C206.58 35.75, 214.62 27.03, 220.78 19.67 M212.38 41.52 C214.01 38.67, 214.63 38.75, 220.91 31.71 M212.38 41.52 C215.45 38.39, 217.57 36.08, 220.91 31.71 M5.57 39.32 C5.57 39.32, 5.57 39.32, 5.57 39.32 M5.57 39.32 C5.57 39.32, 5.57 39.32, 5.57 39.32 M17.61 39.19 C12.28 36.11, 10.5 30.92, 5.53 28.69 M17.61 39.19 C14.14 36.13, 9.86 32.55, 5.53 28.69 M30.4 39.71 C25.58 34.33, 19.65 30.75, 5.5 18.06 M30.4 39.71 C22.9 33.44, 16.16 28.07, 5.5 18.06 M42.44 39.58 C33.92 32.81, 23.73 25.82, 3.95 6.12 M42.44 39.58 C32.68 31.13, 23.17 22.29, 3.95 6.12 M54.48 39.45 C42.72 27.8, 29.28 19.67, 6.94 -1.88 M54.48 39.45 C35.55 24.01, 17.64 6.46, 6.94 -1.88 M66.53 39.31 C56.74 29.36, 41.9 17.49, 15.21 -5.3 M66.53 39.31 C53.69 28.56, 38.66 16.49, 15.21 -5.3 M79.32 39.84 C58.58 25.08, 40.93 8.11, 27.25 -5.43 M79.32 39.84 C66.59 28.92, 54.51 16.71, 27.25 -5.43 M91.36 39.7 C75.5 24.93, 60.86 12.91, 39.29 -5.56 M91.36 39.7 C76.06 26.28, 61.75 14.35, 39.29 -5.56 M103.4 39.57 C90.03 27.96, 76.43 14.99, 51.33 -5.7 M103.4 39.57 C85.89 24.43, 68.8 10.72, 51.33 -5.7 M115.44 39.44 C100.58 28.34, 84.39 13.07, 64.12 -5.17 M115.44 39.44 C101.42 26.04, 86.16 12.68, 64.12 -5.17 M128.24 39.96 C108.88 20.73, 87 4.38, 76.16 -5.31 M128.24 39.96 C116.28 28.98, 102.88 17.77, 76.16 -5.31 M140.28 39.83 C119.44 20.24, 99.72 3.28, 88.21 -5.44 M140.28 39.83 C127.31 27.73, 113.27 16.08, 88.21 -5.44 M152.32 39.69 C133.46 23.31, 113.8 5.91, 100.25 -5.57 M152.32 39.69 C135.15 23.67, 118.81 9.7, 100.25 -5.57 M164.36 39.56 C144.89 24.24, 127.77 8.62, 113.04 -5.05 M164.36 39.56 C152.93 28.85, 139.66 18.22, 113.04 -5.05 M177.16 40.08 C163 29.99, 150.57 18.24, 125.08 -5.18 M177.16 40.08 C165.33 28.23, 150.45 18.7, 125.08 -5.18 M189.2 39.95 C170.84 23.72, 151.09 6.4, 137.12 -5.32 M189.2 39.95 C176.85 30.06, 163.56 18.56, 137.12 -5.32 M201.24 39.82 C185.42 24.41, 169.87 13.01, 149.16 -5.45 M201.24 39.82 C181.12 22.3, 162.51 5.14, 149.16 -5.45 M211.77 38.37 C199.76 28.25, 185.81 13.56, 161.96 -4.93 M211.77 38.37 C193.34 23.6, 176.85 8, 161.96 -4.93 M220.04 34.96 C204.5 24.1, 193.7 9.25, 174 -5.06 M220.04 34.96 C201.54 20.12, 185.09 3.77, 174 -5.06 M224.53 28.27 C212.64 17.07, 198 7.59, 186.04 -5.19 M224.53 28.27 C215.16 20.32, 205.94 11.55, 186.04 -5.19 M224.5 17.64 C213.71 8.87, 206.74 3.97, 198.08 -5.33 M224.5 17.64 C215.41 9.94, 207.29 2.87, 198.08 -5.33" stroke="#12b886" stroke-width="1" fill="none"></path><path d="M10 0 M10 0 C85.05 -2.86, 159.22 -2.07, 210 0 M210 0 C214.97 1.91, 218.68 2.25, 220 10 M220 10 C221.51 16.41, 218.58 25.22, 220 30 M220 30 C218.22 36.03, 217.47 40.46, 210 40 M210 40 C167.1 42.13, 124.45 41.68, 10 40 M10 40 C2.98 40.1, -0.49 37.22, 0 30 M0 30 C-1.45 23.84, -0.74 20.6, 0 10 M0 10 C1.71 1.33, 2.35 1.89, 10 0" stroke="#000000" stroke-width="2.5" fill="none" stroke-dasharray="8 10"></path></g><g transform="translate(269.49495841030864 854) rotate(0 53.62994384765625 24)"><text x="53.62994384765625" y="0" font-family="Virgil, Segoe UI Emoji" font-size="20px" fill="#000000" text-anchor="middle" style="white-space: pre;" direction="ltr" dominant-baseline="text-before-edge">state</text><text x="53.62994384765625" y="24" font-family="Virgil, Segoe UI Emoji" font-size="20px" fill="#000000" text-anchor="middle" style="white-space: pre;" direction="ltr" dominant-baseline="text-before-edge">(useState)</text></g><g stroke-linecap="round"><g transform="translate(616.9749693966368 238) rotate(0 32.91132624171689 319.9179964405651)"><path d="M-0.94 0.99 C8.99 11.15, 48.67 -32.56, 58.8 60.47 C68.93 153.5, 69.51 462.5, 59.85 559.17 C50.2 655.84, 10.94 627.03, 0.88 640.49" stroke="#000000" stroke-width="2.5" fill="none" stroke-dasharray="8 10"></path></g><g transform="translate(616.9749693966368 238) rotate(0 32.91132624171689 319.9179964405651)"><path d="M30.22 -6.4 C22.42 -3.61, 13.32 -0.63, -0.12 0.21" stroke="#000000" stroke-width="2.5" fill="none"></path></g><g transform="translate(616.9749693966368 238) rotate(0 32.91132624171689 319.9179964405651)"><path d="M26.78 13.84 C19.87 11.9, 11.58 10.14, -0.12 0.21" stroke="#000000" stroke-width="2.5" fill="none"></path></g><g transform="translate(616.9749693966368 238) rotate(0 32.91132624171689 319.9179964405651)"><path d="M25.9 619.69 C19.48 625.67, 11.83 631.8, 1.7 639.71" stroke="#000000" stroke-width="2.5" fill="none"></path></g><g transform="translate(616.9749693966368 238) rotate(0 32.91132624171689 319.9179964405651)"><path d="M32.52 639.11 C24.63 640.48, 15.42 642.06, 1.7 639.71" stroke="#000000" stroke-width="2.5" fill="none"></path></g></g><mask></mask><g transform="translate(560.1950926876524 534.7798767089844) rotate(270 132.77987670898438 36)"><text x="132.77987670898438" y="0" font-family="Virgil, Segoe UI Emoji" font-size="20px" fill="#000000" text-anchor="middle" style="white-space: pre;" direction="ltr" dominant-baseline="text-before-edge">uses selector function to</text><text x="132.77987670898438" y="24" font-family="Virgil, Segoe UI Emoji" font-size="20px" fill="#000000" text-anchor="middle" style="white-space: pre;" direction="ltr" dominant-baseline="text-before-edge">extract part of the store</text><text x="132.77987670898438" y="48" font-family="Virgil, Segoe UI Emoji" font-size="20px" fill="#000000" text-anchor="middle" style="white-space: pre;" direction="ltr" dominant-baseline="text-before-edge"></text></g><g stroke-linecap="round" transform="translate(278.97496939663677 926) rotate(0 20 20)"><path d="M25.02 4.19 L39.55 21.21 L19.58 38.74 L4.12 26.63 L-0.5 19.62 L21.41 0.44 L22.7 0.58 L24.6 7.07" stroke="none" stroke-width="0" fill="#40c057"></path><path d="M26.25 5.25 M26.25 5.25 C30.63 10.47, 33.46 13.33, 34.75 15.75 M34.75 15.75 C41.65 22, 41.66 21.86, 34.75 26.25 M34.75 26.25 C33.62 29.27, 30.93 30.91, 26.25 34.75 M26.25 34.75 C21.37 39.42, 21.96 40.65, 15.75 34.75 M15.75 34.75 C14.13 33.14, 10.24 29.82, 5.25 26.25 M5.25 26.25 C-1.17 20.9, -1.96 20.43, 5.25 15.75 M5.25 15.75 C9.79 12.87, 11.41 8.85, 15.75 5.25 M15.75 5.25 C21.99 0.43, 19.68 0.76, 26.25 5.25" stroke="#000000" stroke-width="2.5" fill="none" stroke-dasharray="8 10"></path></g><g transform="translate(325.97496939663677 932) rotate(0 132.10987854003906 12)"><text x="132.10987854003906" y="0" font-family="Virgil, Segoe UI Emoji" font-size="20px" fill="#000000" text-anchor="middle" style="white-space: pre;" direction="ltr" dominant-baseline="text-before-edge">returns [state, store.get]</text></g><g stroke-linecap="round" transform="translate(876.9749693966368 289) rotate(0 200 200)"><path d="M32 0 M32 0 C140.93 -1.43, 253.39 -0.98, 368 0 M368 0 C387.89 1.04, 400.89 11.6, 400 32 M400 32 C398.92 134, 398.04 237.43, 400 368 M400 368 C398.49 389.55, 389.83 398.79, 368 400 M368 400 C270.99 397.92, 175.42 399.85, 32 400 M32 400 C12.05 402, -1.28 391.19, 0 368 M0 368 C-1.68 241.2, -1.02 114.45, 0 32 M0 32 C0.31 10.68, 9.66 -0.41, 32 0" stroke="#495057" stroke-width="2.5" fill="none" stroke-dasharray="8 10"></path></g><g transform="translate(910.0266661739805 257.625) rotate(0 139.79986572265625 12)"><text x="139.79986572265625" y="0" font-family="Virgil, Segoe UI Emoji" font-size="20px" fill="#343a40" text-anchor="middle" style="white-space: pre;" direction="ltr" dominant-baseline="text-before-edge">&lt;FastContextStoreProvider&gt;</text></g><g stroke-linecap="round" transform="translate(916.9749693966368 349) rotate(0 160 160)"><path d="M32 0 M32 0 C95.11 -1.48, 158.18 -0.18, 288 0 M32 0 C98.19 -1.6, 164.65 -2.73, 288 0 M288 0 C308.38 0.18, 321.61 12.27, 320 32 M288 0 C307.81 -0.02, 319.1 9.59, 320 32 M320 32 C319.65 110.03, 319.63 186.08, 320 288 M320 32 C319.07 100.67, 317.71 169.98, 320 288 M320 288 C320.04 307.46, 310.75 321.51, 288 320 M320 288 C318.46 310.26, 309.93 321.93, 288 320 M288 320 C222.24 322.33, 156.11 321.59, 32 320 M288 320 C216.84 317.76, 147.89 318.92, 32 320 M32 320 C11.13 321.33, 0.79 310.23, 0 288 M32 320 C9.65 319, -0.21 311.34, 0 288 M0 288 C-0.32 231.77, -2.01 178.02, 0 32 M0 288 C-1.87 226.32, -1.37 165.79, 0 32 M0 32 C-1.28 8.93, 10.22 -1, 32 0 M0 32 C-0.13 11.06, 10.24 -2.09, 32 0" stroke="#495057" stroke-width="2" fill="none"></path></g><g transform="translate(1015.6423583126524 322.40625) rotate(0 43.859954833984375 12)"><text x="43.859954833984375" y="0" font-family="Virgil, Segoe UI Emoji" font-size="20px" fill="#343a40" text-anchor="middle" style="white-space: pre;" direction="ltr" dominant-baseline="text-before-edge">Consumer</text></g><g stroke-linecap="round" transform="translate(936.9749693966368 369) rotate(0 20 20)"><path d="M24.49 7.12 L38.99 22.89 L20.76 36.84 L3.71 25.33 L0.31 22.31 L19.65 2.48 L23.23 2.08 L28.2 5.59" stroke="none" stroke-width="0" fill="#15aabf"></path><path d="M26.25 5.25 M26.25 5.25 C29.47 7.57, 30.4 11.08, 34.75 15.75 M26.25 5.25 C28.18 8.81, 31.63 11.63, 34.75 15.75 M34.75 15.75 C41.26 22.34, 41.85 22.95, 34.75 26.25 M34.75 15.75 C42.08 20.6, 40.72 20, 34.75 26.25 M34.75 26.25 C32.09 30.03, 28.83 32.31, 26.25 34.75 M34.75 26.25 C31.79 28.24, 28.82 31.31, 26.25 34.75 M26.25 34.75 C19.1 39.86, 22.12 41.07, 15.75 34.75 M26.25 34.75 C20.1 39.77, 22.17 39.18, 15.75 34.75 M15.75 34.75 C13.41 33.41, 10.96 31.82, 5.25 26.25 M15.75 34.75 C12.32 31.6, 9.03 29.27, 5.25 26.25 M5.25 26.25 C1.36 22.15, 0.23 20.84, 5.25 15.75 M5.25 26.25 C2.03 20.03, -0.46 19.88, 5.25 15.75 M5.25 15.75 C6.63 13.16, 8.66 12, 15.75 5.25 M5.25 15.75 C8.59 13.13, 12.24 9.34, 15.75 5.25 M15.75 5.25 C20.36 1.09, 20.28 0.52, 26.25 5.25 M15.75 5.25 C20.96 2.03, 20.91 -0.56, 26.25 5.25" stroke="#000000" stroke-width="2" fill="none"></path></g><g transform="translate(990.2777037716368 377.1484375) rotate(0 83.669921875 12)"><text x="83.669921875" y="0" font-family="Virgil, Segoe UI Emoji" font-size="20px" fill="#000000" text-anchor="middle" style="white-space: pre;" direction="ltr" dominant-baseline="text-before-edge">selector Function</text></g><g stroke-linecap="round" transform="translate(936.9749693966368 498) rotate(0 80 20)"><path d="M2.66 2.31 C2.66 2.31, 2.66 2.31, 2.66 2.31 M2.66 2.31 C2.66 2.31, 2.66 2.31, 2.66 2.31 M0.43 10.98 C3.29 6.44, 7.07 2.22, 10.27 -0.34 M0.43 10.98 C3.39 7.47, 6.91 3.83, 10.27 -0.34 M0.83 16.62 C3.65 13.97, 6.56 8.5, 13.29 2.28 M0.83 16.62 C3.5 13.23, 6.09 11.36, 13.29 2.28 M1.22 22.26 C8.79 14.16, 14.69 7.4, 18.28 2.64 M1.22 22.26 C8.08 14.07, 14.73 8.01, 18.28 2.64 M0.96 28.66 C6.26 22.17, 14.43 12.59, 23.27 3 M0.96 28.66 C7.8 19.82, 16.81 10.59, 23.27 3 M0.7 35.06 C10.42 26.57, 18.9 15.46, 28.91 2.6 M0.7 35.06 C11.8 23.57, 22.13 11.09, 28.91 2.6 M3.72 37.68 C12.97 26.9, 23.77 12.74, 33.9 2.97 M3.72 37.68 C11.48 30.09, 18.2 22.51, 33.9 2.97 M6.74 40.31 C16.76 27.89, 28.24 15.16, 39.54 2.57 M6.74 40.31 C16.24 29.08, 25.76 17.56, 39.54 2.57 M11.72 40.67 C21.67 29.79, 31.47 20.73, 44.53 2.93 M11.72 40.67 C20.91 30.47, 28.11 22.69, 44.53 2.93 M17.37 40.27 C27.22 32.9, 34.39 22.27, 50.17 2.54 M17.37 40.27 C26.49 29.35, 35.61 20.73, 50.17 2.54 M22.35 40.63 C30.53 31.34, 40.44 19.91, 55.16 2.9 M22.35 40.63 C30.1 32.54, 36.54 23.14, 55.16 2.9 M28 40.24 C37.7 29.16, 45.38 19.46, 60.8 2.5 M28 40.24 C39.05 26.02, 52.54 12.64, 60.8 2.5 M32.98 40.6 C44.17 30.83, 53.62 16.06, 65.79 2.86 M32.98 40.6 C46.34 26.42, 58.41 12.87, 65.79 2.86 M38.63 40.2 C46.13 34.17, 51.43 25.21, 70.77 3.22 M38.63 40.2 C48.39 30.12, 56.89 19.94, 70.77 3.22 M43.61 40.56 C53.18 29.77, 65.27 15.39, 76.42 2.83 M43.61 40.56 C56.26 26.2, 67.43 12.35, 76.42 2.83 M49.26 40.17 C60.62 25.15, 73.32 11.18, 81.4 3.19 M49.26 40.17 C56.91 33.44, 63.63 24.54, 81.4 3.19 M54.24 40.53 C64.27 30.24, 73.39 17.33, 87.05 2.79 M54.24 40.53 C62.37 31.17, 70.03 20.34, 87.05 2.79 M59.23 40.89 C66.85 31.67, 78.26 20.36, 92.03 3.15 M59.23 40.89 C66.6 31.25, 75.21 22.53, 92.03 3.15 M64.87 40.49 C79.34 25.96, 89.38 10.15, 97.68 2.76 M64.87 40.49 C76.27 28.08, 88.02 13.69, 97.68 2.76 M69.86 40.85 C76.77 32.47, 83.93 24.69, 102.66 3.12 M69.86 40.85 C76.67 31.63, 85.08 24.34, 102.66 3.12 M75.5 40.46 C86.59 26.66, 100.06 14.41, 108.31 2.72 M75.5 40.46 C87.15 25.97, 98.8 12.35, 108.31 2.72 M80.49 40.82 C90.96 25.45, 105.86 14.81, 113.29 3.08 M80.49 40.82 C90.47 29.52, 100.75 17.7, 113.29 3.08 M86.13 40.42 C96.77 29.79, 107.27 16.21, 118.28 3.44 M86.13 40.42 C94.38 30.84, 100.1 24.02, 118.28 3.44 M91.12 40.78 C100.25 27.78, 112.84 16.48, 123.92 3.05 M91.12 40.78 C103.88 26.85, 116.02 13.02, 123.92 3.05 M96.76 40.39 C102.63 30.03, 112.71 22.36, 128.91 3.41 M96.76 40.39 C107.59 28.76, 117.14 17.12, 128.91 3.41 M101.75 40.75 C112.15 31.06, 120.94 20.18, 134.55 3.01 M101.75 40.75 C114.76 25.51, 127.64 11.03, 134.55 3.01 M106.74 41.11 C116.84 30.31, 122.07 22.29, 139.54 3.37 M106.74 41.11 C113.24 31.83, 121.41 24.51, 139.54 3.37 M112.38 40.72 C121.93 29.5, 130.33 19.51, 145.18 2.98 M112.38 40.72 C123.53 28.76, 133.4 17.8, 145.18 2.98 M117.37 41.08 C125.78 27.48, 139.75 15.72, 150.17 3.34 M117.37 41.08 C128.6 27.47, 138.44 15.14, 150.17 3.34 M123.01 40.68 C131.45 32.45, 136.3 23.52, 156.47 2.19 M123.01 40.68 C135.86 27.27, 148.1 11.38, 156.47 2.19 M128 41.04 C137.05 29.79, 147.05 22.39, 159.49 4.82 M128 41.04 C136.32 31.43, 145.03 20.27, 159.49 4.82 M133.64 40.65 C144.81 27.76, 154.23 16.09, 161.85 8.19 M133.64 40.65 C142.05 31, 152.06 20.94, 161.85 8.19 M138.63 41.01 C148.46 32.92, 154.47 21.19, 162.25 13.84 M138.63 41.01 C146.37 32.87, 153.07 23.88, 162.25 13.84 M144.27 40.61 C149.55 36.9, 151.22 29.76, 161.98 20.24 M144.27 40.61 C148.63 34.82, 152.93 31.38, 161.98 20.24 M149.91 40.22 C151.31 37.94, 154.55 33.3, 162.38 25.88 M149.91 40.22 C153.14 36.59, 156.58 31.41, 162.38 25.88" stroke="#ced4da" stroke-width="0.5" fill="none"></path><path d="M10 0 M10 0 C45.28 0.6, 78.22 -1.15, 150 0 M10 0 C61.43 0.09, 113.81 0.31, 150 0 M150 0 C157.07 -0.3, 161.7 5.2, 160 10 M150 0 C155.15 -0.32, 159.51 4.05, 160 10 M160 10 C161.38 18.43, 161.51 23.71, 160 30 M160 10 C159.04 16.42, 158.95 20.25, 160 30 M160 30 C158.57 36.85, 156.06 40.74, 150 40 M160 30 C158.5 34.51, 155.75 38.74, 150 40 M150 40 C113.56 39.57, 76.03 40.64, 10 40 M150 40 C112.88 39.38, 75.18 38.96, 10 40 M10 40 C2.96 38.34, -1.08 37.23, 0 30 M10 40 C1.6 38.09, -0.63 36.11, 0 30 M0 30 C-0.73 26.25, -0.9 20.64, 0 10 M0 30 C0.86 24.52, -0.94 19.44, 0 10 M0 10 C0.56 2, 2.78 -0.13, 10 0 M0 10 C-2.27 3.65, 2.97 -0.97, 10 0" stroke="#000000" stroke-width="1" fill="none"></path></g><g stroke-linecap="round"><g transform="translate(616.9749693966368 869.3451473786455) rotate(0 160.902455099672 -169.01859943935415)"><path d="M0.85 0.07 C17.58 0.17, 73.67 54.59, 100.23 -0.5 C126.79 -55.59, 123.45 -271.97, 160.24 -330.46 C197.02 -388.94, 294.39 -348.02, 320.95 -351.4" stroke="#2b8a3e" stroke-width="4.5" fill="none" stroke-dasharray="8 12"></path></g><g transform="translate(616.9749693966368 869.3451473786455) rotate(0 160.902455099672 -169.01859943935415)"><path d="M30.97 -0.08 C21.31 0.3, 14.93 1.65, 0.77 -0.57" stroke="#2b8a3e" stroke-width="4.5" fill="none"></path></g><g transform="translate(616.9749693966368 869.3451473786455) rotate(0 160.902455099672 -169.01859943935415)"><path d="M24.29 19.33 C16.75 14.03, 12.3 9.75, 0.77 -0.57" stroke="#2b8a3e" stroke-width="4.5" fill="none"></path></g><g transform="translate(616.9749693966368 869.3451473786455) rotate(0 160.902455099672 -169.01859943935415)"><path d="M291.8 -344.41 C299.4 -346.52, 310.2 -347.24, 320.87 -352.04" stroke="#2b8a3e" stroke-width="4.5" fill="none"></path></g><g transform="translate(616.9749693966368 869.3451473786455) rotate(0 160.902455099672 -169.01859943935415)"><path d="M294.4 -364.76 C301.06 -360.95, 311.11 -355.78, 320.87 -352.04" stroke="#2b8a3e" stroke-width="4.5" fill="none"></path></g></g><mask></mask><g transform="translate(638.1373399530629 708.5327438533859) rotate(276.4847741559822 122.11988067626953 12)"><text x="122.11988067626953" y="0" font-family="Virgil, Segoe UI Emoji" font-size="20px" fill="#2b8a3e" text-anchor="middle" style="white-space: pre;" direction="ltr" dominant-baseline="text-before-edge">passing selector function</text></g><g transform="translate(1106.9749693966369 494) rotate(0 51.149940490722656 24)"><text x="51.149940490722656" y="0" font-family="Virgil, Segoe UI Emoji" font-size="20px" fill="#000000" text-anchor="middle" style="white-space: pre;" direction="ltr" dominant-baseline="text-before-edge">state</text><text x="51.149940490722656" y="24" font-family="Virgil, Segoe UI Emoji" font-size="20px" fill="#000000" text-anchor="middle" style="white-space: pre;" direction="ltr" dominant-baseline="text-before-edge">(useStore)</text></g><g stroke-linecap="round" transform="translate(936.9749693966368 433) rotate(0 20 20)"><path d="M25.95 6.95 L40.56 19.68 L20.72 38.26 L5.87 26.9 L2.27 22.06 L21.28 3.34 L23.42 1.98 L25.83 3.37" stroke="none" stroke-width="0" fill="#fa5252"></path><path d="M26.25 5.25 M26.25 5.25 C27.35 6.87, 29.9 11.11, 34.75 15.75 M26.25 5.25 C27.95 7.87, 30.5 10.74, 34.75 15.75 M34.75 15.75 C41 21.01, 40.89 20.56, 34.75 26.25 M34.75 15.75 C40.81 21.74, 39.24 22.17, 34.75 26.25 M34.75 26.25 C32.32 27.69, 29.79 29.98, 26.25 34.75 M34.75 26.25 C32.18 28.11, 30.44 29.84, 26.25 34.75 M26.25 34.75 C22.71 41.36, 20.45 40.47, 15.75 34.75 M26.25 34.75 C20.16 38.94, 19.72 39.4, 15.75 34.75 M15.75 34.75 C12.1 31.81, 11.57 30.15, 5.25 26.25 M15.75 34.75 C12.99 32.22, 9.75 29.58, 5.25 26.25 M5.25 26.25 C-0.07 20.2, 1.3 22.88, 5.25 15.75 M5.25 26.25 C0.42 19.88, -0.29 22.53, 5.25 15.75 M5.25 15.75 C8.79 12.24, 9.14 11.9, 15.75 5.25 M5.25 15.75 C9.86 11.3, 13.58 8.93, 15.75 5.25 M15.75 5.25 C21.83 0.2, 21.27 -1.38, 26.25 5.25 M15.75 5.25 C23.09 -2.17, 20.02 1.89, 26.25 5.25" stroke="#862e9c" stroke-width="1" fill="none"></path></g><g transform="translate(983.3577818966368 440.35546875) rotate(0 43.58995056152344 12)"><text x="0" y="0" font-family="Virgil, Segoe UI Emoji" font-size="20px" fill="#862e9c" text-anchor="start" style="white-space: pre;" direction="ltr" dominant-baseline="text-before-edge">setStore</text></g><g transform="translate(911.9749693966368 696) rotate(0 144.79986572265625 12)"><text x="144.79986572265625" y="0" font-family="Virgil, Segoe UI Emoji" font-size="20px" fill="#343a40" text-anchor="middle" style="white-space: pre;" direction="ltr" dominant-baseline="text-before-edge">&lt;/FastContextStoreProvider&gt;</text></g><g stroke-linecap="round" transform="translate(936.9749693966368 569) rotate(0 130 30)"><path d="M15 0 M15 0 C104.89 -0.89, 198.35 1.38, 245 0 M245 0 C253 1.63, 261.67 5.77, 260 15 M260 15 C258.68 26.67, 261.81 34.46, 260 45 M260 45 C259.12 53.42, 253.59 60.37, 245 60 M245 60 C157 59.39, 65.99 59.65, 15 60 M15 60 C4.23 60.8, -1.78 54.15, 0 45 M0 45 C1.6 33.95, 1.41 26.91, 0 15 M0 15 C0 4.94, 6.49 1.47, 15 0" stroke="#5c940d" stroke-width="4.5" fill="none" stroke-dasharray="8 12"></path></g><g transform="translate(966.4650588131407 587) rotate(0 100.5099105834961 12)"><text x="100.5099105834961" y="0" font-family="Virgil, Segoe UI Emoji" font-size="20px" fill="#5c940d" text-anchor="middle" style="white-space: pre;" direction="ltr" dominant-baseline="text-before-edge">render fancy stuff...</text></g><g stroke-linecap="round" transform="translate(767.9749693966368 572) rotate(0 10 17)"><path d="M15.26 2.81 L20.87 19.13 L12.82 31.11 L0.13 18.24 L8.11 0.16 L10.51 -0.22 L14.79 3.35" stroke="none" stroke-width="0" fill="#15aabf"></path><path d="M13.75 4.5 M13.75 4.5 C14.52 6.74, 15.59 9.79, 17.25 13.5 M13.75 4.5 C15.41 7.72, 16.28 10.79, 17.25 13.5 M17.25 13.5 C20.52 17.09, 21.8 18.17, 17.25 22.5 M17.25 13.5 C19.86 16.32, 18.58 16.66, 17.25 22.5 M17.25 22.5 C15.9 25.59, 14.26 28, 13.75 29.5 M17.25 22.5 C16.01 23.98, 15.01 26.26, 13.75 29.5 M13.75 29.5 C11.82 32.02, 11.38 35.06, 8.25 29.5 M13.75 29.5 C10.18 34.53, 10.65 32.2, 8.25 29.5 M8.25 29.5 C6.47 27.42, 5.18 26.68, 2.75 22.5 M8.25 29.5 C5.88 26.53, 4.18 23.62, 2.75 22.5 M2.75 22.5 C-0.72 17.72, 0.82 17.8, 2.75 13.5 M2.75 22.5 C-0.99 16.88, -1.85 17.15, 2.75 13.5 M2.75 13.5 C5.67 10.98, 7.11 7.31, 8.25 4.5 M2.75 13.5 C4.96 9.9, 6.32 7.11, 8.25 4.5 M8.25 4.5 C9.31 -0.55, 9.32 1.08, 13.75 4.5 M8.25 4.5 C8.75 -0.38, 10.45 -1.27, 13.75 4.5" stroke="#000000" stroke-width="2" fill="none"></path></g><g stroke-linecap="round"><g transform="translate(496.97496939663677 358) rotate(0 220.30903344526888 50.15343657359483)"><path d="M0.34 0.49 C30.33 4.05, 125.43 7.05, 178.81 20.23 C232.2 33.41, 277.06 66.31, 320.63 79.57 C364.21 92.84, 420.54 96.58, 440.28 99.82" stroke="#c92a2a" stroke-width="4.5" fill="none" stroke-dasharray="8 12"></path></g><g transform="translate(496.97496939663677 358) rotate(0 220.30903344526888 50.15343657359483)"><path d="M411.85 104.52 C417.59 106.07, 422.61 104.08, 439.97 98.25" stroke="#c92a2a" stroke-width="4.5" fill="none"></path></g><g transform="translate(496.97496939663677 358) rotate(0 220.30903344526888 50.15343657359483)"><path d="M414.4 84.16 C419.41 89.98, 423.9 92.24, 439.97 98.25" stroke="#c92a2a" stroke-width="4.5" fill="none"></path></g></g><mask></mask></svg>